<svg width="1200" height="360" viewBox="0 0 1200 360" fill="none" xmlns="http://www.w3.org/2000/svg" role="img" aria-label="Nepal Travel & Trek logo">
  <defs>
    <linearGradient id="gSky" x1="80" y1="40" x2="300" y2="320" gradientUnits="userSpaceOnUse">
      <stop stop-color="#0B3A6A"/>
      <stop offset="0.55" stop-color="#0A8F82"/>
      <stop offset="1" stop-color="#12B981"/>
    </linearGradient>
    <linearGradient id="gSun" x1="230" y1="74" x2="330" y2="174" gradientUnits="userSpaceOnUse">
      <stop stop-color="#FFCC66"/>
      <stop offset="1" stop-color="#F59E0B"/>
    </linearGradient>
  </defs>

  <!-- Mark -->
  <g transform="translate(36,36)">
    <path d="M60 0H252C285.137 0 312 26.8629 312 60V252C312 285.137 285.137 312 252 312H60C26.8629 312 0 285.137 0 252V60C0 26.8629 26.8629 0 60 0Z" fill="url(#gSky)"/>
    <circle cx="232" cy="122" r="44" fill="url(#gSun)"/>
    <path d="M32 232L92 148C97 141 107 141 112 148L148 200L184 160C190 154 200 154 206 160L264 232H32Z" fill="#EAF2FF" opacity="0.96"/>
    <path d="M82 232L122 184L144 212L172 182L210 232H82Z" fill="#D7E6FF" opacity="0.95"/>
    <path d="M64 264C98 240 120 236 146 232C176 228 198 218 216 202C232 188 246 176 268 168" stroke="#0B1220" stroke-opacity="0.38" stroke-width="8" stroke-linecap="round"/>
    <circle cx="64" cy="264" r="8" fill="#0B1220" fill-opacity="0.45"/>
  </g>

  <!-- Wordmark -->
  <g transform="translate(390,78)">
    <text x="0" y="84" font-family="ui-sans-serif, system-ui, -apple-system, Segoe UI, Roboto, Inter, Arial" font-size="78" font-weight="800" fill="#0B1220">
      Nepal Travel
    </text>
    <text x="0" y="160" font-family="ui-sans-serif, system-ui, -apple-system, Segoe UI, Roboto, Inter, Arial" font-size="78" font-weight="800" fill="#0B1220">
      &amp; Trek
    </text>
    <text x="4" y="216" font-family="ui-sans-serif, system-ui, -apple-system, Segoe UI, Roboto, Inter, Arial" font-size="26" font-weight="600" fill="#475569">
      Premium Himalayan experiences • Treks • Tours • Safaris
    </text>
  </g>
</svg>

